{"asset":{"version":"2.0","generator":"babylon.js glTF exporter for Maya 2018 v20200701.2"},"scene":0,"scenes":[{"nodes":[0]}],"nodes":[{"mesh":0,"name":"pCube8"}],"meshes":[{"primitives":[{"attributes":{"POSITION":1,"TANGENT":2,"NORMAL":3,"TEXCOORD_0":4},"indices":0,"material":0}],"name":"pCube8"}],"accessors":[{"bufferView":0,"componentType":5123,"count":360,"type":"SCALAR","name":"accessorIndices"},{"bufferView":1,"componentType":5126,"count":240,"max":[0.139192164,0.286534369,0.140955269],"min":[-0.1493321,0.00583510846,-0.149724349],"type":"VEC3","name":"accessorPositions"},{"bufferView":2,"componentType":5126,"count":240,"type":"VEC4","name":"accessorTangents"},{"bufferView":1,"byteOffset":2880,"componentType":5126,"count":240,"type":"VEC3","name":"accessorNormals"},{"bufferView":3,"componentType":5126,"count":240,"type":"VEC2","name":"accessorUVs"}],"bufferViews":[{"buffer":0,"byteLength":720,"name":"bufferViewScalar"},{"buffer":0,"byteOffset":720,"byteLength":5760,"byteStride":12,"name":"bufferViewFloatVec3"},{"buffer":0,"byteOffset":6480,"byteLength":3840,"byteStride":16,"name":"bufferViewFloatVec4"},{"buffer":0,"byteOffset":10320,"byteLength":1920,"byteStride":8,"name":"bufferViewFloatVec2"}],"buffers":[{"uri":"cubes.bin","byteLength":12240}],"materials":[{"pbrMetallicRoughness":{"baseColorFactor":[0.5,0.5,0.5,1.0],"metallicFactor":0.0,"roughnessFactor":0.450053632},"name":"lambert1"}]}