{"asset":{"version":"2.0","generator":"babylon.js glTF exporter for Maya 2018 v20200701.2"},"scene":0,"scenes":[{"nodes":[0]}],"nodes":[{"children":[1,2,3,4,5,6,7,8,9],"name":"EnvirGrp"},{"mesh":0,"name":"Cloth1","extras":{"currentUVSet":"map1"}},{"mesh":1,"name":"Rocks","extras":{"currentUVSet":"map1"}},{"mesh":2,"name":"Planks","extras":{"currentUVSet":"map1"}},{"mesh":3,"name":"Arrows1","extras":{"currentUVSet":"map1"}},{"mesh":4,"name":"polySurface382","extras":{"currentUVSet":"map1"}},{"mesh":5,"name":"Quiver1","extras":{"currentUVSet":"map1"}},{"mesh":6,"name":"Katana","extras":{"currentUVSet":"map1"}},{"mesh":7,"name":"Gate","extras":{"currentUVSet":"map1"}},{"mesh":8,"name":"BaseGround","extras":{"currentUVSet":"map1"}}],"meshes":[{"primitives":[{"attributes":{"POSITION":1,"TANGENT":2,"NORMAL":3,"TEXCOORD_0":4},"indices":0,"material":0}],"name":"Cloth1"},{"primitives":[{"attributes":{"POSITION":6,"TANGENT":7,"NORMAL":8,"TEXCOORD_0":9},"indices":5,"material":1}],"name":"Rocks"},{"primitives":[{"attributes":{"POSITION":11,"TANGENT":12,"NORMAL":13,"TEXCOORD_0":14},"indices":10,"material":2}],"name":"Planks"},{"primitives":[{"attributes":{"POSITION":16,"TANGENT":17,"NORMAL":18,"TEXCOORD_0":19},"indices":15,"material":3}],"name":"Arrows1"},{"primitives":[{"attributes":{"POSITION":21,"TANGENT":22,"NORMAL":23,"TEXCOORD_0":24},"indices":20,"material":4}],"name":"polySurface382"},{"primitives":[{"attributes":{"POSITION":26,"TANGENT":27,"NORMAL":28,"TEXCOORD_0":29},"indices":25,"material":5}],"name":"Quiver1"},{"primitives":[{"attributes":{"POSITION":31,"TANGENT":32,"NORMAL":33,"TEXCOORD_0":34},"indices":30,"material":6}],"name":"Katana"},{"primitives":[{"attributes":{"POSITION":36,"TANGENT":37,"NORMAL":38,"TEXCOORD_0":39},"indices":35,"material":7},{"attributes":{"POSITION":41,"TANGENT":42,"NORMAL":43,"TEXCOORD_0":44},"indices":40,"material":8}],"name":"Gate"},{"primitives":[{"attributes":{"POSITION":46,"TANGENT":47,"NORMAL":48,"TEXCOORD_0":49},"indices":45,"material":9},{"attributes":{"POSITION":51,"TANGENT":52,"NORMAL":53,"TEXCOORD_0":54},"indices":50,"material":10}],"name":"BaseGround"}],"accessors":[{"bufferView":0,"componentType":5123,"count":480,"type":"SCALAR","name":"accessorIndices"},{"bufferView":1,"componentType":5126,"count":109,"max":[-0.07078953,0.0546244048,0.0118992375],"min":[-0.08587437,0.0120209381,0.002228751],"type":"VEC3","name":"accessorPositions"},{"bufferView":2,"componentType":5126,"count":109,"type":"VEC4","name":"accessorTangents"},{"bufferView":1,"byteOffset":1308,"componentType":5126,"count":109,"type":"VEC3","name":"accessorNormals"},{"bufferView":3,"componentType":5126,"count":109,"type":"VEC2","name":"accessorUVs"},{"bufferView":0,"byteOffset":960,"componentType":5123,"count":3528,"type":"SCALAR","name":"accessorIndices"},{"bufferView":1,"byteOffset":2616,"componentType":5126,"count":805,"max":[0.137087628,0.04734745,0.09602319],"min":[-0.1221133,-0.0381719954,-0.07741064],"type":"VEC3","name":"accessorPositions"},{"bufferView":2,"byteOffset":1744,"componentType":5126,"count":805,"type":"VEC4","name":"accessorTangents"},{"bufferView":1,"byteOffset":12276,"componentType":5126,"count":805,"type":"VEC3","name":"accessorNormals"},{"bufferView":3,"byteOffset":872,"componentType":5126,"count":805,"type":"VEC2","name":"accessorUVs"},{"bufferView":0,"byteOffset":8016,"componentType":5123,"count":300,"type":"SCALAR","name":"accessorIndices"},{"bufferView":1,"byteOffset":21936,"componentType":5126,"count":200,"max":[0.07230207,0.005624008,0.131875619],"min":[-0.0338986963,-0.0160035156,-0.106209658],"type":"VEC3","name":"accessorPositions"},{"bufferView":2,"byteOffset":14624,"componentType":5126,"count":200,"type":"VEC4","name":"accessorTangents"},{"bufferView":1,"byteOffset":24336,"componentType":5126,"count":200,"type":"VEC3","name":"accessorNormals"},{"bufferView":3,"byteOffset":7312,"componentType":5126,"count":200,"type":"VEC2","name":"accessorUVs"},{"bufferView":0,"byteOffset":8616,"componentType":5123,"count":2730,"type":"SCALAR","name":"accessorIndices"},{"bufferView":1,"byteOffset":26736,"componentType":5126,"count":975,"max":[0.09547851,0.08564327,0.09958574],"min":[-0.05242154,-0.0123630231,-0.07713607],"type":"VEC3","name":"accessorPositions"},{"bufferView":2,"byteOffset":17824,"componentType":5126,"count":975,"type":"VEC4","name":"accessorTangents"},{"bufferView":1,"byteOffset":38436,"componentType":5126,"count":975,"type":"VEC3","name":"accessorNormals"},{"bufferView":3,"byteOffset":8912,"componentType":5126,"count":975,"type":"VEC2","name":"accessorUVs"},{"bufferView":0,"byteOffset":14076,"componentType":5123,"count":3138,"type":"SCALAR","name":"accessorIndices"},{"bufferView":1,"byteOffset":50136,"componentType":5126,"count":909,"max":[-0.0582305863,0.0598051734,0.00672165863],"min":[-0.08936079,-0.0109393,-0.008196239],"type":"VEC3","name":"accessorPositions"},{"bufferView":2,"byteOffset":33424,"componentType":5126,"count":909,"type":"VEC4","name":"accessorTangents"},{"bufferView":1,"byteOffset":61044,"componentType":5126,"count":909,"type":"VEC3","name":"accessorNormals"},{"bufferView":3,"byteOffset":16712,"componentType":5126,"count":909,"type":"VEC2","name":"accessorUVs"},{"bufferView":0,"byteOffset":20352,"componentType":5123,"count":4686,"type":"SCALAR","name":"accessorIndices"},{"bufferView":1,"byteOffset":71952,"componentType":5126,"count":1534,"max":[0.0806287155,0.07860849,-0.0636628345],"min":[0.07055334,0.0558803156,-0.07796959],"type":"VEC3","name":"accessorPositions"},{"bufferView":2,"byteOffset":47968,"componentType":5126,"count":1534,"type":"VEC4","name":"accessorTangents"},{"bufferView":1,"byteOffset":90360,"componentType":5126,"count":1534,"type":"VEC3","name":"accessorNormals"},{"bufferView":3,"byteOffset":23984,"componentType":5126,"count":1534,"type":"VEC2","name":"accessorUVs"},{"bufferView":0,"byteOffset":29724,"componentType":5123,"count":2529,"type":"SCALAR","name":"accessorIndices"},{"bufferView":1,"byteOffset":108768,"componentType":5126,"count":871,"max":[0.1082338,0.04696889,0.0215379782],"min":[0.08456014,0.01452589,0.0171879549],"type":"VEC3","name":"accessorPositions"},{"bufferView":2,"byteOffset":72512,"componentType":5126,"count":871,"type":"VEC4","name":"accessorTangents"},{"bufferView":1,"byteOffset":119220,"componentType":5126,"count":871,"type":"VEC3","name":"accessorNormals"},{"bufferView":3,"byteOffset":36256,"componentType":5126,"count":871,"type":"VEC2","name":"accessorUVs"},{"bufferView":0,"byteOffset":34784,"componentType":5123,"count":1920,"type":"SCALAR","name":"accessorIndices"},{"bufferView":1,"byteOffset":129672,"componentType":5126,"count":659,"max":[0.11471194,0.140556708,-0.05516446],"min":[-0.0106398417,-0.008480317,-0.138716489],"type":"VEC3","name":"accessorPositions"},{"bufferView":2,"byteOffset":86448,"componentType":5126,"count":659,"type":"VEC4","name":"accessorTangents"},{"bufferView":1,"byteOffset":137580,"componentType":5126,"count":659,"type":"VEC3","name":"accessorNormals"},{"bufferView":3,"byteOffset":43224,"componentType":5126,"count":659,"type":"VEC2","name":"accessorUVs"},{"bufferView":0,"byteOffset":38624,"componentType":5123,"count":3168,"type":"SCALAR","name":"accessorIndices"},{"bufferView":1,"byteOffset":145488,"componentType":5126,"count":1162,"max":[0.09440553,0.0883708745,-0.050793156],"min":[0.00733661139,-0.00381021015,-0.109657742],"type":"VEC3","name":"accessorPositions"},{"bufferView":2,"byteOffset":96992,"componentType":5126,"count":1162,"type":"VEC4","name":"accessorTangents"},{"bufferView":1,"byteOffset":159432,"componentType":5126,"count":1162,"type":"VEC3","name":"accessorNormals"},{"bufferView":3,"byteOffset":48496,"componentType":5126,"count":1162,"type":"VEC2","name":"accessorUVs"},{"bufferView":0,"byteOffset":44960,"componentType":5123,"count":2460,"type":"SCALAR","name":"accessorIndices"},{"bufferView":1,"byteOffset":173376,"componentType":5126,"count":443,"max":[0.148549646,-0.0137065072,0.144177467],"min":[-0.156819552,-0.0924484357,-0.147949025],"type":"VEC3","name":"accessorPositions"},{"bufferView":2,"byteOffset":115584,"componentType":5126,"count":443,"type":"VEC4","name":"accessorTangents"},{"bufferView":1,"byteOffset":178692,"componentType":5126,"count":443,"type":"VEC3","name":"accessorNormals"},{"bufferView":3,"byteOffset":57792,"componentType":5126,"count":443,"type":"VEC2","name":"accessorUVs"},{"bufferView":0,"byteOffset":49880,"componentType":5123,"count":1380,"type":"SCALAR","name":"accessorIndices"},{"bufferView":1,"byteOffset":184008,"componentType":5126,"count":682,"max":[0.148549646,0.006596955,0.144177467],"min":[-0.156819552,-0.0924484357,-0.147949025],"type":"VEC3","name":"accessorPositions"},{"bufferView":2,"byteOffset":122672,"componentType":5126,"count":682,"type":"VEC4","name":"accessorTangents"},{"bufferView":1,"byteOffset":192192,"componentType":5126,"count":682,"type":"VEC3","name":"accessorNormals"},{"bufferView":3,"byteOffset":61336,"componentType":5126,"count":682,"type":"VEC2","name":"accessorUVs"}],"bufferViews":[{"buffer":0,"byteLength":52640,"name":"bufferViewScalar"},{"buffer":0,"byteOffset":52640,"byteLength":200376,"byteStride":12,"name":"bufferViewFloatVec3"},{"buffer":0,"byteOffset":253016,"byteLength":133584,"byteStride":16,"name":"bufferViewFloatVec4"},{"buffer":0,"byteOffset":386600,"byteLength":66792,"byteStride":8,"name":"bufferViewFloatVec2"}],"buffers":[{"uri":"floor.bin","byteLength":453392}],"materials":[{"pbrMetallicRoughness":{"baseColorTexture":{"index":0},"metallicFactor":0.0,"roughnessFactor":0.450053632},"name":"lambert34"},{"pbrMetallicRoughness":{"baseColorTexture":{"index":1},"metallicFactor":0.0,"roughnessFactor":0.450053632},"name":"lambert31"},{"pbrMetallicRoughness":{"baseColorTexture":{"index":2},"metallicFactor":0.0,"roughnessFactor":0.450053632},"name":"lambert36"},{"pbrMetallicRoughness":{"baseColorTexture":{"index":3},"metallicFactor":0.0,"roughnessFactor":0.450053632},"name":"lambert33"},{"pbrMetallicRoughness":{"baseColorTexture":{"index":4},"metallicFactor":0.0,"roughnessFactor":0.450053632},"name":"lambert35"},{"pbrMetallicRoughness":{"baseColorTexture":{"index":5},"metallicFactor":0.0,"roughnessFactor":0.450053632},"name":"lambert32"},{"pbrMetallicRoughness":{"baseColorTexture":{"index":6},"metallicFactor":0.0,"roughnessFactor":0.450053632},"name":"lambert37"},{"pbrMetallicRoughness":{"baseColorTexture":{"index":7},"metallicFactor":0.0,"roughnessFactor":0.450053632},"name":"lambert38"},{"pbrMetallicRoughness":{"baseColorTexture":{"index":8},"metallicFactor":0.0,"roughnessFactor":0.450053632},"name":"lambert39"},{"pbrMetallicRoughness":{"baseColorTexture":{"index":9},"metallicFactor":0.0,"roughnessFactor":0.450053632},"name":"lambert28"},{"pbrMetallicRoughness":{"baseColorTexture":{"index":10},"metallicFactor":0.0,"roughnessFactor":0.450053632},"name":"lambert27"}],"textures":[{"sampler":0,"source":0,"name":"EnvironmentNEWEST_Flag_BaseColor.jpg"},{"sampler":0,"source":1,"name":"EnvironmentNEWEST_Rocks_BaseColor.jpg"},{"sampler":0,"source":2,"name":"EnvironmentNEWEST_Planks_BaseColor.jpg"},{"sampler":0,"source":3,"name":"EnvironmentNEWEST_Arrow_BaseColor.jpg"},{"sampler":0,"source":4,"name":"EnvironmentNEWEST_WholeBanner_BaseColor.jpg"},{"sampler":0,"source":5,"name":"EnvironmentNEWEST_Quiver_BaseColor.jpg"},{"sampler":0,"source":6,"name":"EnvironmentNEWEST_Katana_BaseColor.jpg"},{"sampler":0,"source":7,"name":"EnvironmentNEWEST_ToriiGate_BaseColor.jpg"},{"sampler":0,"source":8,"name":"EnvironmentNEWEST_Lanterns_BaseColor.jpg"},{"sampler":0,"source":9,"name":"EnvironmentNEWEST_GroundBottom_BaseColor.jpg"},{"sampler":0,"source":10,"name":"EnvironmentNEWEST_GroundTop_BaseColor.jpg"}],"images":[{"uri":"EnvironmentNEWEST_Flag_BaseColor.jpg"},{"uri":"EnvironmentNEWEST_Rocks_BaseColor.jpg"},{"uri":"EnvironmentNEWEST_Planks_BaseColor.jpg"},{"uri":"EnvironmentNEWEST_Arrow_BaseColor.jpg"},{"uri":"EnvironmentNEWEST_WholeBanner_BaseColor.jpg"},{"uri":"EnvironmentNEWEST_Quiver_BaseColor.jpg"},{"uri":"EnvironmentNEWEST_Katana_BaseColor.jpg"},{"uri":"EnvironmentNEWEST_ToriiGate_BaseColor.jpg"},{"uri":"EnvironmentNEWEST_Lanterns_BaseColor.jpg"},{"uri":"EnvironmentNEWEST_GroundBottom_BaseColor.jpg"},{"uri":"EnvironmentNEWEST_GroundTop_BaseColor.jpg"}],"samplers":[{"magFilter":9729,"minFilter":9987}]}