{"asset":{"version":"2.0","generator":"babylon.js glTF exporter for Maya 2018 v20200701.2"},"scene":0,"scenes":[{"nodes":[0]}],"nodes":[{"children":[1],"name":"group2"},{"mesh":0,"name":"Ground1"}],"meshes":[{"primitives":[{"attributes":{"POSITION":1,"TANGENT":2,"NORMAL":3,"TEXCOORD_0":4},"indices":0,"material":0}],"name":"Ground1"}],"accessors":[{"bufferView":0,"componentType":5123,"count":657,"type":"SCALAR","name":"accessorIndices"},{"bufferView":1,"componentType":5126,"count":197,"max":[0.149167061,0.0193331316,0.187738284],"min":[-0.146819025,-0.0238963217,-0.2734661],"type":"VEC3","name":"accessorPositions"},{"bufferView":2,"componentType":5126,"count":197,"type":"VEC4","name":"accessorTangents"},{"bufferView":1,"byteOffset":2364,"componentType":5126,"count":197,"type":"VEC3","name":"accessorNormals"},{"bufferView":3,"componentType":5126,"count":197,"type":"VEC2","name":"accessorUVs"}],"bufferViews":[{"buffer":0,"byteLength":1316,"name":"bufferViewScalar"},{"buffer":0,"byteOffset":1316,"byteLength":4728,"byteStride":12,"name":"bufferViewFloatVec3"},{"buffer":0,"byteOffset":6044,"byteLength":3152,"byteStride":16,"name":"bufferViewFloatVec4"},{"buffer":0,"byteOffset":9196,"byteLength":1576,"byteStride":8,"name":"bufferViewFloatVec2"}],"buffers":[{"uri":"floor.bin","byteLength":10772}],"materials":[{"pbrMetallicRoughness":{"baseColorTexture":{"index":0},"metallicFactor":0.0,"roughnessFactor":0.293834269},"name":"MaterialFBXASC046011"}],"textures":[{"sampler":0,"source":0,"name":"ground.001.png"}],"images":[{"uri":"ground.001.png"}],"samplers":[{"magFilter":9729,"minFilter":9987}]}