{"asset":{"version":"2.0","generator":"babylon.js glTF exporter for Maya 2018 v20200701.2"},"scene":0,"scenes":[{"nodes":[0,1]}],"nodes":[{"mesh":0,"name":"polySurface3"},{"mesh":1,"name":"polySurface4"}],"meshes":[{"primitives":[{"attributes":{"POSITION":1,"TANGENT":2,"NORMAL":3,"TEXCOORD_0":4},"indices":0,"material":0}],"name":"polySurface3"},{"primitives":[{"attributes":{"POSITION":6,"TANGENT":7,"NORMAL":8,"TEXCOORD_0":9},"indices":5,"material":0}],"name":"polySurface4"}],"accessors":[{"bufferView":0,"componentType":5123,"count":12,"type":"SCALAR","name":"accessorIndices"},{"bufferView":1,"componentType":5126,"count":8,"max":[-0.0218301173,0.10639412,0.112249412],"min":[-0.27780062,-0.0606880561,-0.142161474],"type":"VEC3","name":"accessorPositions"},{"bufferView":2,"componentType":5126,"count":8,"type":"VEC4","name":"accessorTangents"},{"bufferView":1,"byteOffset":96,"componentType":5126,"count":8,"type":"VEC3","name":"accessorNormals"},{"bufferView":3,"componentType":5126,"count":8,"type":"VEC2","name":"accessorUVs"},{"bufferView":0,"byteOffset":24,"componentType":5123,"count":24,"type":"SCALAR","name":"accessorIndices"},{"bufferView":1,"byteOffset":192,"componentType":5126,"count":16,"max":[0.1999085,0.114273943,0.112249412],"min":[-0.005848398,-0.08999331,-0.156724721],"type":"VEC3","name":"accessorPositions"},{"bufferView":2,"byteOffset":128,"componentType":5126,"count":16,"type":"VEC4","name":"accessorTangents"},{"bufferView":1,"byteOffset":384,"componentType":5126,"count":16,"type":"VEC3","name":"accessorNormals"},{"bufferView":3,"byteOffset":64,"componentType":5126,"count":16,"type":"VEC2","name":"accessorUVs"}],"bufferViews":[{"buffer":0,"byteLength":72,"name":"bufferViewScalar"},{"buffer":0,"byteOffset":72,"byteLength":576,"byteStride":12,"name":"bufferViewFloatVec3"},{"buffer":0,"byteOffset":648,"byteLength":384,"byteStride":16,"name":"bufferViewFloatVec4"},{"buffer":0,"byteOffset":1032,"byteLength":192,"byteStride":8,"name":"bufferViewFloatVec2"}],"buffers":[{"uri":"normalTestMesh.bin","byteLength":1224}],"materials":[{"pbrMetallicRoughness":{"baseColorFactor":[0.5,0.5,0.5,1.0],"metallicFactor":0.0,"roughnessFactor":0.450053632},"name":"lambert2"}]}