{"asset":{"version":"2.0","generator":"babylon.js glTF exporter for Maya 2018 v20200701.2"},"scene":0,"scenes":[{"nodes":[0]}],"nodes":[{"mesh":0,"name":"pSphere2"}],"meshes":[{"primitives":[{"attributes":{"POSITION":1,"TANGENT":2,"NORMAL":3,"TEXCOORD_0":4},"indices":0,"material":0}],"name":"pSphere2"}],"accessors":[{"bufferView":0,"componentType":5123,"count":60,"type":"SCALAR","name":"accessorIndices"},{"bufferView":1,"componentType":5126,"count":60,"max":[0.1106456,0.06336578,0.1106456],"min":[-0.110645577,2.38418574E-09,-0.1106456],"type":"VEC3","name":"accessorPositions"},{"bufferView":2,"componentType":5126,"count":60,"type":"VEC4","name":"accessorTangents"},{"bufferView":1,"byteOffset":720,"componentType":5126,"count":60,"type":"VEC3","name":"accessorNormals"},{"bufferView":3,"componentType":5126,"count":60,"type":"VEC2","name":"accessorUVs"}],"bufferViews":[{"buffer":0,"byteLength":120,"name":"bufferViewScalar"},{"buffer":0,"byteOffset":120,"byteLength":1440,"byteStride":12,"name":"bufferViewFloatVec3"},{"buffer":0,"byteOffset":1560,"byteLength":960,"byteStride":16,"name":"bufferViewFloatVec4"},{"buffer":0,"byteOffset":2520,"byteLength":480,"byteStride":8,"name":"bufferViewFloatVec2"}],"buffers":[{"uri":"normalTestMesh.bin","byteLength":3000}],"materials":[{"pbrMetallicRoughness":{"baseColorFactor":[0.5,0.5,0.5,1.0],"metallicFactor":0.0,"roughnessFactor":0.450053632},"name":"lambert1"}]}