{"asset":{"version":"2.0","generator":"babylon.js glTF exporter for Maya 2018 v20200701.2"},"scene":0,"scenes":[{"nodes":[0]}],"nodes":[{"children":[1,2],"name":"pCube3"},{"mesh":0,"name":"polySurface128"},{"mesh":1,"name":"polySurface129"}],"meshes":[{"primitives":[{"attributes":{"POSITION":1,"TANGENT":2,"NORMAL":3,"TEXCOORD_0":4},"indices":0,"material":0}],"name":"polySurface128"},{"primitives":[{"attributes":{"POSITION":6,"TANGENT":7,"NORMAL":8,"TEXCOORD_0":9},"indices":5,"material":0}],"name":"polySurface129"}],"accessors":[{"bufferView":0,"componentType":5123,"count":6,"type":"SCALAR","name":"accessorIndices"},{"bufferView":1,"componentType":5126,"count":4,"max":[-0.032237675,-0.006111033,-0.0147137213],"min":[-0.066615,-0.0452032872,-0.0333256461],"type":"VEC3","name":"accessorPositions"},{"bufferView":2,"componentType":5126,"count":4,"type":"VEC4","name":"accessorTangents"},{"bufferView":1,"byteOffset":48,"componentType":5126,"count":4,"type":"VEC3","name":"accessorNormals"},{"bufferView":3,"componentType":5126,"count":4,"type":"VEC2","name":"accessorUVs"},{"bufferView":0,"byteOffset":12,"componentType":5123,"count":6,"type":"SCALAR","name":"accessorIndices"},{"bufferView":1,"byteOffset":96,"componentType":5126,"count":4,"max":[0.0571380854,0.04812934,-0.0180561822],"min":[0.03852616,0.009037081,-0.05243351],"type":"VEC3","name":"accessorPositions"},{"bufferView":2,"byteOffset":64,"componentType":5126,"count":4,"type":"VEC4","name":"accessorTangents"},{"bufferView":1,"byteOffset":144,"componentType":5126,"count":4,"type":"VEC3","name":"accessorNormals"},{"bufferView":3,"byteOffset":32,"componentType":5126,"count":4,"type":"VEC2","name":"accessorUVs"}],"bufferViews":[{"buffer":0,"byteLength":24,"name":"bufferViewScalar"},{"buffer":0,"byteOffset":24,"byteLength":192,"byteStride":12,"name":"bufferViewFloatVec3"},{"buffer":0,"byteOffset":216,"byteLength":128,"byteStride":16,"name":"bufferViewFloatVec4"},{"buffer":0,"byteOffset":344,"byteLength":64,"byteStride":8,"name":"bufferViewFloatVec2"}],"buffers":[{"uri":"test.bin","byteLength":408}],"materials":[{"pbrMetallicRoughness":{"baseColorFactor":[0.5,0.5,0.5,1.0],"metallicFactor":0.0,"roughnessFactor":0.450053632},"name":"lambert1"}]}