{"asset":{"version":"2.0","generator":"babylon.js glTF exporter for Maya 2018 v20200701.2"},"scene":0,"scenes":[{"nodes":[0]}],"nodes":[{"mesh":0,"name":"test"}],"meshes":[{"primitives":[{"attributes":{"POSITION":1,"TANGENT":2,"NORMAL":3,"TEXCOORD_0":4},"indices":0,"material":0}],"name":"test"}],"accessors":[{"bufferView":0,"componentType":5123,"count":89997,"type":"SCALAR","name":"accessorIndices"},{"bufferView":1,"componentType":5126,"count":24851,"max":[0.01102151,0.0629509,0.012040575],"min":[-0.009724208,0.000114169779,-0.006864184],"type":"VEC3","name":"accessorPositions"},{"bufferView":2,"componentType":5126,"count":24851,"type":"VEC4","name":"accessorTangents"},{"bufferView":1,"byteOffset":298212,"componentType":5126,"count":24851,"type":"VEC3","name":"accessorNormals"},{"bufferView":3,"componentType":5126,"count":24851,"type":"VEC2","name":"accessorUVs"}],"bufferViews":[{"buffer":0,"byteLength":179996,"name":"bufferViewScalar"},{"buffer":0,"byteOffset":179996,"byteLength":596424,"byteStride":12,"name":"bufferViewFloatVec3"},{"buffer":0,"byteOffset":776420,"byteLength":397616,"byteStride":16,"name":"bufferViewFloatVec4"},{"buffer":0,"byteOffset":1174036,"byteLength":198808,"byteStride":8,"name":"bufferViewFloatVec2"}],"buffers":[{"uri":"test.bin","byteLength":1372844}],"materials":[{"pbrMetallicRoughness":{"baseColorFactor":[0.5,0.5,0.5,1.0],"metallicFactor":0.0,"roughnessFactor":0.450053632},"name":"lambert1"}]}