{"asset":{"version":"2.0","generator":"babylon.js glTF exporter for Maya 2018 v20200701.2"},"scene":0,"scenes":[{"nodes":[0]}],"nodes":[{"mesh":0,"name":"pSphere1"}],"meshes":[{"primitives":[{"attributes":{"POSITION":1,"TANGENT":2,"NORMAL":3,"TEXCOORD_0":4},"indices":0,"material":0}],"name":"pSphere1"}],"accessors":[{"bufferView":0,"componentType":5123,"count":1140,"type":"SCALAR","name":"accessorIndices"},{"bufferView":1,"componentType":5126,"count":201,"max":[0.131214246,0.09307138,0.131214276],"min":[-0.131214276,0.0,-0.131214336],"type":"VEC3","name":"accessorPositions"},{"bufferView":2,"componentType":5126,"count":201,"type":"VEC4","name":"accessorTangents"},{"bufferView":1,"byteOffset":2412,"componentType":5126,"count":201,"type":"VEC3","name":"accessorNormals"},{"bufferView":3,"componentType":5126,"count":201,"type":"VEC2","name":"accessorUVs"}],"bufferViews":[{"buffer":0,"byteLength":2280,"name":"bufferViewScalar"},{"buffer":0,"byteOffset":2280,"byteLength":4824,"byteStride":12,"name":"bufferViewFloatVec3"},{"buffer":0,"byteOffset":7104,"byteLength":3216,"byteStride":16,"name":"bufferViewFloatVec4"},{"buffer":0,"byteOffset":10320,"byteLength":1608,"byteStride":8,"name":"bufferViewFloatVec2"}],"buffers":[{"uri":"test.bin","byteLength":11928}],"materials":[{"pbrMetallicRoughness":{"baseColorFactor":[0.5,0.5,0.5,1.0],"metallicFactor":0.0,"roughnessFactor":0.450053632},"name":"lambert1"}]}