{"asset":{"version":"2.0","generator":"babylon.js glTF exporter for Maya 2018 v20200701.2"},"scene":0,"scenes":[{"nodes":[0,1]}],"nodes":[{"mesh":0,"name":"pPlane1"},{"mesh":1,"name":"pPlane2"}],"meshes":[{"primitives":[{"attributes":{"POSITION":1,"TANGENT":2,"NORMAL":3,"TEXCOORD_0":4},"indices":0,"material":0}],"name":"pPlane1"},{"primitives":[{"attributes":{"POSITION":6,"TANGENT":7,"NORMAL":8,"TEXCOORD_0":9},"indices":5,"material":0}],"name":"pPlane2"}],"accessors":[{"bufferView":0,"componentType":5123,"count":12,"type":"SCALAR","name":"accessorIndices"},{"bufferView":1,"componentType":5126,"count":8,"max":[0.102516361,0.0437002778,0.102516361],"min":[-0.102516361,0.0,-0.102516361],"type":"VEC3","name":"accessorPositions"},{"bufferView":2,"componentType":5126,"count":8,"type":"VEC4","name":"accessorTangents"},{"bufferView":1,"byteOffset":96,"componentType":5126,"count":8,"type":"VEC3","name":"accessorNormals"},{"bufferView":3,"componentType":5126,"count":8,"type":"VEC2","name":"accessorUVs"},{"bufferView":0,"byteOffset":24,"componentType":5123,"count":6,"type":"SCALAR","name":"accessorIndices"},{"bufferView":1,"byteOffset":192,"componentType":5126,"count":4,"max":[0.114570469,0.0,0.114570469],"min":[-0.114570469,0.0,-0.114570469],"type":"VEC3","name":"accessorPositions"},{"bufferView":2,"byteOffset":128,"componentType":5126,"count":4,"type":"VEC4","name":"accessorTangents"},{"bufferView":1,"byteOffset":240,"componentType":5126,"count":4,"type":"VEC3","name":"accessorNormals"},{"bufferView":3,"byteOffset":64,"componentType":5126,"count":4,"type":"VEC2","name":"accessorUVs"}],"bufferViews":[{"buffer":0,"byteLength":36,"name":"bufferViewScalar"},{"buffer":0,"byteOffset":36,"byteLength":288,"byteStride":12,"name":"bufferViewFloatVec3"},{"buffer":0,"byteOffset":324,"byteLength":192,"byteStride":16,"name":"bufferViewFloatVec4"},{"buffer":0,"byteOffset":516,"byteLength":96,"byteStride":8,"name":"bufferViewFloatVec2"}],"buffers":[{"uri":"test.bin","byteLength":612}],"materials":[{"pbrMetallicRoughness":{"baseColorFactor":[0.5,0.5,0.5,1.0],"metallicFactor":0.0,"roughnessFactor":0.450053632},"name":"lambert1"}]}