{"asset":{"version":"2.0","generator":"babylon.js glTF exporter for Maya 2018 v20200701.2"},"scene":0,"scenes":[{"nodes":[0]}],"nodes":[{"mesh":0,"name":"pSphere6"}],"meshes":[{"primitives":[{"attributes":{"POSITION":1,"TANGENT":2,"NORMAL":3,"TEXCOORD_0":4},"indices":0,"material":0}],"name":"pSphere6"}],"accessors":[{"bufferView":0,"componentType":5123,"count":11400,"type":"SCALAR","name":"accessorIndices"},{"bufferView":1,"componentType":5126,"count":2452,"max":[0.08462955,0.06420594,0.05807942],"min":[-0.08521272,-0.000493249856,-0.051733382],"type":"VEC3","name":"accessorPositions"},{"bufferView":2,"componentType":5126,"count":2452,"type":"VEC4","name":"accessorTangents"},{"bufferView":1,"byteOffset":29424,"componentType":5126,"count":2452,"type":"VEC3","name":"accessorNormals"},{"bufferView":3,"componentType":5126,"count":2452,"type":"VEC2","name":"accessorUVs"}],"bufferViews":[{"buffer":0,"byteLength":22800,"name":"bufferViewScalar"},{"buffer":0,"byteOffset":22800,"byteLength":58848,"byteStride":12,"name":"bufferViewFloatVec3"},{"buffer":0,"byteOffset":81648,"byteLength":39232,"byteStride":16,"name":"bufferViewFloatVec4"},{"buffer":0,"byteOffset":120880,"byteLength":19616,"byteStride":8,"name":"bufferViewFloatVec2"}],"buffers":[{"uri":"test.bin","byteLength":140496}],"materials":[{"pbrMetallicRoughness":{"baseColorFactor":[0.5,0.5,0.5,1.0],"metallicFactor":0.0,"roughnessFactor":0.450053632},"name":"lambert1"}]}