{"asset":{"version":"2.0","generator":"babylon.js glTF exporter for Maya 2018 v20200701.2"},"scene":0,"scenes":[{"nodes":[0]}],"nodes":[{"mesh":0,"name":"polySurface4"}],"meshes":[{"primitives":[{"attributes":{"POSITION":1,"TANGENT":2,"NORMAL":3,"TEXCOORD_0":4},"indices":0,"material":0}],"name":"polySurface4"}],"accessors":[{"bufferView":0,"componentType":5123,"count":9216,"type":"SCALAR","name":"accessorIndices"},{"bufferView":1,"componentType":5126,"count":1617,"max":[0.109439693,0.0912303254,0.06850011],"min":[-0.0916167051,-0.00421154965,-0.0895821154],"type":"VEC3","name":"accessorPositions"},{"bufferView":2,"componentType":5126,"count":1617,"type":"VEC4","name":"accessorTangents"},{"bufferView":1,"byteOffset":19404,"componentType":5126,"count":1617,"type":"VEC3","name":"accessorNormals"},{"bufferView":3,"componentType":5126,"count":1617,"type":"VEC2","name":"accessorUVs"}],"bufferViews":[{"buffer":0,"byteLength":18432,"name":"bufferViewScalar"},{"buffer":0,"byteOffset":18432,"byteLength":38808,"byteStride":12,"name":"bufferViewFloatVec3"},{"buffer":0,"byteOffset":57240,"byteLength":25872,"byteStride":16,"name":"bufferViewFloatVec4"},{"buffer":0,"byteOffset":83112,"byteLength":12936,"byteStride":8,"name":"bufferViewFloatVec2"}],"buffers":[{"uri":"test.bin","byteLength":96048}],"materials":[{"pbrMetallicRoughness":{"baseColorFactor":[0.5,0.5,0.5,1.0],"metallicFactor":0.0,"roughnessFactor":0.450053632},"name":"lambert1"}]}