{"asset":{"version":"2.0","generator":"babylon.js glTF exporter for Maya 2018 v20200701.2"},"scene":0,"scenes":[{"nodes":[0,1]}],"nodes":[{"mesh":0,"name":"teapot:Base"},{"mesh":1,"name":"polySurface1"}],"meshes":[{"primitives":[{"attributes":{"POSITION":1,"TANGENT":2,"NORMAL":3,"TEXCOORD_0":4},"indices":0,"material":0}],"name":"teapot:Base"},{"primitives":[{"attributes":{"POSITION":6,"TANGENT":7,"NORMAL":8,"TEXCOORD_0":9},"indices":5,"material":1}],"name":"polySurface1"}],"accessors":[{"bufferView":0,"componentType":5123,"count":36456,"type":"SCALAR","name":"accessorIndices"},{"bufferView":1,"componentType":5126,"count":24504,"max":[0.1361042,0.0990226,0.07926761],"min":[-0.118901439,0.0,-0.07926761],"type":"VEC3","name":"accessorPositions"},{"bufferView":2,"componentType":5126,"count":24504,"type":"VEC4","name":"accessorTangents"},{"bufferView":1,"byteOffset":294048,"componentType":5126,"count":24504,"type":"VEC3","name":"accessorNormals"},{"bufferView":3,"componentType":5126,"count":24504,"type":"VEC2","name":"accessorUVs"},{"bufferView":0,"byteOffset":72912,"componentType":5123,"count":10656,"type":"SCALAR","name":"accessorIndices"},{"bufferView":1,"byteOffset":588096,"componentType":5126,"count":7200,"max":[0.05551191,0.1306672,0.05551191],"min":[-0.05551191,0.0974771455,-0.05551191],"type":"VEC3","name":"accessorPositions"},{"bufferView":2,"byteOffset":392064,"componentType":5126,"count":7200,"type":"VEC4","name":"accessorTangents"},{"bufferView":1,"byteOffset":674496,"componentType":5126,"count":7200,"type":"VEC3","name":"accessorNormals"},{"bufferView":3,"byteOffset":196032,"componentType":5126,"count":7200,"type":"VEC2","name":"accessorUVs"}],"bufferViews":[{"buffer":0,"byteLength":94224,"name":"bufferViewScalar"},{"buffer":0,"byteOffset":94224,"byteLength":760896,"byteStride":12,"name":"bufferViewFloatVec3"},{"buffer":0,"byteOffset":855120,"byteLength":507264,"byteStride":16,"name":"bufferViewFloatVec4"},{"buffer":0,"byteOffset":1362384,"byteLength":253632,"byteStride":8,"name":"bufferViewFloatVec2"}],"buffers":[{"uri":"UtahTeapot.bin","byteLength":1616016}],"materials":[{"pbrMetallicRoughness":{"baseColorTexture":{"index":0},"metallicFactor":0.0,"roughnessFactor":0.2817609},"emissiveFactor":[1.0,1.0,1.0],"name":"teapot:default2"},{"pbrMetallicRoughness":{"baseColorFactor":[0.5,0.5,0.5,1.0],"metallicFactor":0.0,"roughnessFactor":0.2581639},"name":"teapot:Default1"}],"textures":[{"sampler":0,"source":0,"name":"default.png"}],"images":[{"uri":"default.png"}],"samplers":[{"magFilter":9729,"minFilter":9987}]}